<svg width="72" height="72" viewBox="0 0 72 72" fill="none" xmlns="http://www.w3.org/2000/svg">
<path d="M42.9002 24.3711C43.2185 24.3711 43.5237 24.2447 43.7487 24.0196C43.9738 23.7946 44.1002 23.4894 44.1002 23.1711V13.5711C44.1002 13.2528 43.9738 12.9476 43.7487 12.7226C43.5237 12.4975 43.2185 12.3711 42.9002 12.3711C42.5819 12.3711 42.2767 12.4975 42.0517 12.7226C41.8266 12.9476 41.7002 13.2528 41.7002 13.5711V23.1711C41.7002 23.4894 41.8266 23.7946 42.0517 24.0196C42.2767 24.2447 42.5819 24.3711 42.9002 24.3711Z" fill="#00E88F"/>
<path d="M29.0999 24.3727C29.4182 24.3727 29.7234 24.2462 29.9484 24.0212C30.1735 23.7961 30.2999 23.4909 30.2999 23.1727V17.1727C30.2999 16.8544 30.1735 16.5492 29.9484 16.3241C29.7234 16.0991 29.4182 15.9727 29.0999 15.9727C28.7816 15.9727 28.4764 16.0991 28.2514 16.3241C28.0263 16.5492 27.8999 16.8544 27.8999 17.1727V23.1727C27.8999 23.4909 28.0263 23.7961 28.2514 24.0212C28.4764 24.2462 28.7816 24.3727 29.0999 24.3727Z" fill="#00E88F"/>
<path d="M35.9998 14.7727C36.3181 14.7727 36.6233 14.6462 36.8483 14.4212C37.0734 14.1961 37.1998 13.8909 37.1998 13.5727V11.1727C37.1998 10.8544 37.0734 10.5492 36.8483 10.3241C36.6233 10.0991 36.3181 9.97266 35.9998 9.97266C35.6815 9.97266 35.3763 10.0991 35.1513 10.3241C34.9262 10.5492 34.7998 10.8544 34.7998 11.1727V13.5727C34.7998 13.8909 34.9262 14.1961 35.1513 14.4212C35.3763 14.6462 35.6815 14.7727 35.9998 14.7727Z" fill="#00E88F"/>
<path d="M29.4481 29.7591C29.2246 29.9839 29.0991 30.2881 29.0991 30.6051C29.0991 30.9221 29.2246 31.2263 29.4481 31.4511L35.1481 37.1991C35.2596 37.3116 35.3923 37.4008 35.5386 37.4618C35.6848 37.5227 35.8417 37.5541 36.0001 37.5541C36.1585 37.5541 36.3153 37.5227 36.4616 37.4618C36.6078 37.4008 36.7405 37.3116 36.8521 37.1991L42.5521 31.4991C42.7756 31.2743 42.901 30.9701 42.901 30.6531C42.901 30.3361 42.7756 30.0319 42.5521 29.8071C42.4405 29.6946 42.3078 29.6053 42.1616 29.5444C42.0153 29.4835 41.8585 29.4521 41.7001 29.4521C41.5417 29.4521 41.3848 29.4835 41.2386 29.5444C41.0923 29.6053 40.9596 29.6946 40.8481 29.8071L37.2481 33.4071V19.5711C37.2481 19.2528 37.1216 18.9476 36.8966 18.7226C36.6716 18.4975 36.3663 18.3711 36.0481 18.3711C35.7298 18.3711 35.4246 18.4975 35.1995 18.7226C34.9745 18.9476 34.8481 19.2528 34.8481 19.5711V33.4071L31.2481 29.8071C31.1389 29.6763 31.0032 29.5703 30.8498 29.4961C30.6965 29.4219 30.5292 29.3811 30.3589 29.3766C30.1886 29.3721 30.0194 29.4038 29.8623 29.4698C29.7053 29.5357 29.5641 29.6343 29.4481 29.7591Z" fill="#00E88F"/>
<path d="M57.6001 40.4279C57.6815 40.1825 57.6815 39.9173 57.6001 39.6719L53.4361 29.9039C53.3442 29.687 53.1906 29.5019 52.9942 29.3717C52.7979 29.2416 52.5676 29.1721 52.3321 29.1719H48.7081C48.3898 29.1719 48.0846 29.2983 47.8596 29.5233C47.6345 29.7484 47.5081 30.0536 47.5081 30.3719C47.5081 30.6901 47.6345 30.9954 47.8596 31.2204C48.0846 31.4454 48.3898 31.5719 48.7081 31.5719H51.4561L54.2041 38.0279H48.2041C47.8242 38.0252 47.4477 38.0992 47.0971 38.2456C46.7466 38.392 46.4292 38.6078 46.1641 38.8799L41.0041 44.0279H30.9961L25.8361 38.8799C25.571 38.6078 25.2536 38.392 24.9031 38.2456C24.5525 38.0992 24.176 38.0252 23.7961 38.0279H17.7961L20.5441 31.5719H23.2921C23.6103 31.5719 23.9156 31.4454 24.1406 31.2204C24.3657 30.9954 24.4921 30.6901 24.4921 30.3719C24.4921 30.0536 24.3657 29.7484 24.1406 29.5233C23.9156 29.2983 23.6103 29.1719 23.2921 29.1719H19.6921C19.4565 29.1721 19.2262 29.2416 19.0299 29.3717C18.8336 29.5019 18.6799 29.687 18.5881 29.9039L14.4361 39.6719C14.3598 39.9099 14.3598 40.1658 14.4361 40.4039C14.4243 40.5717 14.4243 40.7401 14.4361 40.9079V54.3479C14.4361 55.1117 14.7395 55.8442 15.2796 56.3843C15.8197 56.9244 16.5523 57.2279 17.3161 57.2279H54.7201C55.4839 57.2279 56.2164 56.9244 56.7566 56.3843C57.2967 55.8442 57.6001 55.1117 57.6001 54.3479V40.9079C57.6113 40.7481 57.6113 40.5877 57.6001 40.4279ZM55.2001 54.3479C55.2017 54.4114 55.1904 54.4745 55.1669 54.5335C55.1434 54.5925 55.1081 54.646 55.0632 54.691C55.0183 54.7359 54.9647 54.7712 54.9057 54.7947C54.8467 54.8182 54.7836 54.8295 54.7201 54.8279H17.2801C17.2166 54.8295 17.1534 54.8182 17.0945 54.7947C17.0355 54.7712 16.9819 54.7359 16.937 54.691C16.8921 54.646 16.8568 54.5925 16.8333 54.5335C16.8097 54.4745 16.7984 54.4114 16.8001 54.3479V40.9079C16.8001 40.7806 16.8507 40.6585 16.9407 40.5685C17.0307 40.4784 17.1528 40.4279 17.2801 40.4279H23.7961C23.9256 40.4326 24.0491 40.4837 24.1441 40.5719L29.8561 46.2959C29.9522 46.3807 30.0759 46.4276 30.2041 46.4279H41.7961C41.9243 46.4276 42.048 46.3807 42.1441 46.2959L47.8561 40.5719C47.951 40.4837 48.0746 40.4326 48.2041 40.4279H54.7201C54.8474 40.4279 54.9695 40.4784 55.0595 40.5685C55.1495 40.6585 55.2001 40.7806 55.2001 40.9079V54.3479Z" fill="#00E88F"/>
</svg>
