<svg width="72" height="72" viewBox="0 0 72 72" fill="none" xmlns="http://www.w3.org/2000/svg">
<path d="M59.916 17.1953H12.084C11.2893 17.1985 10.5281 17.5156 9.96615 18.0775C9.40423 18.6394 9.08714 19.4006 9.08398 20.1953V51.8033C9.08714 52.598 9.40423 53.3592 9.96615 53.9211C10.5281 54.4831 11.2893 54.8002 12.084 54.8033H59.916C60.7107 54.8002 61.4719 54.4831 62.0338 53.9211C62.5957 53.3592 62.9128 52.598 62.916 51.8033V20.1953C62.9128 19.4006 62.5957 18.6394 62.0338 18.0775C61.4719 17.5156 60.7107 17.1985 59.916 17.1953ZM43.308 23.9993V19.3673H48.504V29.5193L46.8 27.7673C46.5765 27.5456 46.2748 27.4206 45.96 27.4193C45.8021 27.4184 45.6455 27.4487 45.4993 27.5084C45.3531 27.5681 45.2201 27.6561 45.108 27.7673L43.308 29.5193V23.9993ZM41.64 33.5273C41.7894 33.5842 41.9481 33.6127 42.108 33.6113C42.4228 33.61 42.7245 33.485 42.948 33.2633L45.912 30.3113L48.864 33.2633C49.0324 33.4284 49.2458 33.5403 49.4775 33.5848C49.7091 33.6293 49.9488 33.6046 50.1665 33.5137C50.3841 33.4227 50.5702 33.2697 50.7014 33.0736C50.8325 32.8776 50.903 32.6472 50.904 32.4113V23.9993H54.36C54.4873 23.9993 54.6094 24.0499 54.6994 24.1399C54.7894 24.2299 54.84 24.352 54.84 24.4793V47.5193C54.84 47.6466 54.7894 47.7687 54.6994 47.8587C54.6094 47.9487 54.4873 47.9993 54.36 47.9993H17.64C17.5127 47.9993 17.3906 47.9487 17.3006 47.8587C17.2106 47.7687 17.16 47.6466 17.16 47.5193V24.4793C17.16 24.352 17.2106 24.2299 17.3006 24.1399C17.3906 24.0499 17.5127 23.9993 17.64 23.9993H40.908V32.3993C40.9034 32.6389 40.9707 32.8744 41.1011 33.0755C41.2316 33.2765 41.4193 33.4339 41.64 33.5273ZM60.516 51.8033C60.5129 51.9615 60.4487 52.1123 60.3368 52.2242C60.225 52.336 60.0742 52.4002 59.916 52.4033H12.084C11.9258 52.4002 11.775 52.336 11.6631 52.2242C11.5513 52.1123 11.4871 51.9615 11.484 51.8033V20.1953C11.4871 20.0371 11.5513 19.8863 11.6631 19.7744C11.775 19.6626 11.9258 19.5984 12.084 19.5953H40.884V21.5993H17.64C16.8771 21.6025 16.1464 21.9069 15.607 22.4463C15.0676 22.9858 14.7631 23.7165 14.76 24.4793V47.5193C14.7631 48.2822 15.0676 49.0129 15.607 49.5523C16.1464 50.0917 16.8771 50.3962 17.64 50.3993H54.36C55.1228 50.3962 55.8535 50.0917 56.393 49.5523C56.9324 49.0129 57.2368 48.2822 57.24 47.5193V24.4793C57.2368 23.7165 56.9324 22.9858 56.393 22.4463C55.8535 21.9069 55.1228 21.6025 54.36 21.5993H50.904V19.5953H59.916C60.0742 19.5984 60.225 19.6626 60.3368 19.7744C60.4487 19.8863 60.5129 20.0371 60.516 20.1953V51.8033Z" fill="#00E88F"/>
<path d="M23.6761 33.5992H34.9081C35.2263 33.5992 35.5316 33.4728 35.7566 33.2477C35.9817 33.0227 36.1081 32.7175 36.1081 32.3992C36.1081 32.081 35.9817 31.7757 35.7566 31.5507C35.5316 31.3256 35.2263 31.1992 34.9081 31.1992H23.6761C23.3578 31.1992 23.0526 31.3256 22.8275 31.5507C22.6025 31.7757 22.4761 32.081 22.4761 32.3992C22.4761 32.7175 22.6025 33.0227 22.8275 33.2477C23.0526 33.4728 23.3578 33.5992 23.6761 33.5992Z" fill="#00E88F"/>
<path d="M35.1241 38.4004H23.6761C23.3578 38.4004 23.0526 38.5268 22.8275 38.7519C22.6025 38.9769 22.4761 39.2821 22.4761 39.6004C22.4761 39.9186 22.6025 40.2239 22.8275 40.4489C23.0526 40.674 23.3578 40.8004 23.6761 40.8004H35.1241C35.4423 40.8004 35.7476 40.674 35.9726 40.4489C36.1977 40.2239 36.3241 39.9186 36.3241 39.6004C36.3241 39.2821 36.1977 38.9769 35.9726 38.7519C35.7476 38.5268 35.4423 38.4004 35.1241 38.4004Z" fill="#00E88F"/>
</svg>
